<svg width="980" height="173" viewBox="0 0 980 173" fill="none" xmlns="http://www.w3.org/2000/svg">
<path d="M71.6248 13.7938H123.406C135.146 13.7938 145.078 15.5854 153.203 19.1688C161.338 22.7417 167.536 28.0229 171.797 35.0125C176.057 41.9917 178.187 50.5646 178.187 60.7313C178.187 67.8979 176.734 74.4344 173.828 80.3406C170.932 86.2469 166.781 91.2625 161.375 95.3875C155.969 99.5021 149.505 102.559 141.984 104.559L136.187 106.825H87.5154L87.3123 89.95H124.047C131.495 89.95 137.687 88.6427 142.625 86.0281C147.573 83.4136 151.297 79.8875 153.797 75.45C156.307 71.0125 157.562 66.1063 157.562 60.7313C157.562 54.7208 156.38 49.4604 154.015 44.95C151.651 40.4396 147.942 36.95 142.89 34.4813C137.849 32.0021 131.354 30.7625 123.406 30.7625H92.3591V170.2H71.6248V13.7938ZM163.047 170.2L125.015 99.2938L146.609 99.2L185.172 168.903V170.2H163.047ZM252.41 172.356C244.316 172.356 236.993 170.976 230.441 168.216C223.889 165.455 218.269 161.57 213.582 156.559C208.894 151.549 205.295 145.606 202.785 138.731C200.275 131.856 199.019 124.335 199.019 116.169V111.653C199.019 102.205 200.415 93.7729 203.207 86.3563C206.009 78.9396 209.806 72.6531 214.597 67.4969C219.4 62.3406 224.842 58.4396 230.926 55.7938C237.019 53.1479 243.321 51.825 249.832 51.825C258.144 51.825 265.327 53.2573 271.379 56.1219C277.431 58.9865 282.389 62.9813 286.254 68.1063C290.118 73.2208 292.983 79.2365 294.847 86.1531C296.712 93.0594 297.644 100.591 297.644 108.747V117.669H210.847V101.45H277.769V99.95C277.478 94.7938 276.42 89.7833 274.597 84.9188C272.775 80.0438 269.889 76.0333 265.941 72.8875C262.004 69.7313 256.634 68.1531 249.832 68.1531C245.321 68.1531 241.165 69.1011 237.363 70.9969C233.571 72.8927 230.316 75.7052 227.597 79.4344C224.879 83.1531 222.764 87.7 221.254 93.075C219.754 98.4396 219.004 104.632 219.004 111.653V116.169C219.004 121.679 219.775 126.851 221.316 131.684C222.858 136.518 225.113 140.763 228.082 144.419C231.051 148.075 234.665 150.94 238.926 153.013C243.196 155.085 248.051 156.122 253.488 156.122C260.509 156.122 266.452 154.69 271.316 151.825C276.191 148.96 280.452 145.132 284.097 140.341L296.129 149.903C293.629 153.695 290.441 157.309 286.566 160.747C282.702 164.184 277.957 166.981 272.332 169.138C266.717 171.283 260.077 172.356 252.41 172.356ZM354.783 152.263L386.58 53.9656H406.892L365.095 170.2H351.783L354.783 152.263ZM328.252 53.9656L361.017 152.794L363.267 170.2H349.955L307.845 53.9656H328.252ZM447.595 53.9656V170.2H427.627V53.9656H447.595ZM426.111 23.1375C426.111 19.9188 427.095 17.2 429.064 14.9813C431.033 12.7521 433.955 11.6375 437.83 11.6375C441.622 11.6375 444.538 12.7521 446.58 14.9813C448.622 17.2 449.642 19.9188 449.642 23.1375C449.642 26.2208 448.622 28.8563 446.58 31.0438C444.538 33.2208 441.622 34.3094 437.83 34.3094C433.955 34.3094 431.033 33.2208 429.064 31.0438C427.095 28.8563 426.111 26.2208 426.111 23.1375ZM528.17 53.9656V69.2156H465.326V53.9656H528.17ZM486.592 25.7156H506.467V141.403C506.467 145.351 507.076 148.33 508.295 150.341C509.513 152.341 511.086 153.664 513.013 154.309C514.951 154.945 517.029 155.263 519.248 155.263C520.894 155.263 522.628 155.101 524.451 154.778C526.284 154.455 527.664 154.19 528.592 153.981L528.701 170.2C527.128 170.7 525.071 171.184 522.529 171.653C519.987 172.122 516.925 172.356 513.342 172.356C508.477 172.356 504.003 171.388 499.92 169.45C495.836 167.513 492.592 164.273 490.185 159.731C487.789 155.179 486.592 149.039 486.592 141.309V25.7156ZM620.017 150.325V90.4969C620.017 85.9136 619.101 81.924 617.267 78.5281C615.444 75.1219 612.705 72.4865 609.049 70.6219C605.403 68.7573 600.892 67.825 595.517 67.825C590.507 67.825 586.122 68.6844 582.361 70.4031C578.601 72.1219 575.663 74.3771 573.549 77.1688C571.434 79.9604 570.377 82.9708 570.377 86.2H550.517C550.517 82.0438 551.59 77.924 553.736 73.8406C555.882 69.7573 558.976 66.0542 563.017 62.7313C567.069 59.3979 571.939 56.7469 577.627 54.7781C583.325 52.8094 589.684 51.825 596.705 51.825C605.153 51.825 612.616 53.2573 619.095 56.1219C625.575 58.9865 630.658 63.3042 634.345 69.075C638.043 74.8354 639.892 82.0438 639.892 90.7V144.841C639.892 148.716 640.231 152.835 640.908 157.2C641.585 161.565 642.606 165.325 643.97 168.481V170.2H623.236C622.236 167.908 621.45 164.846 620.877 161.013C620.304 157.179 620.017 153.617 620.017 150.325ZM623.455 99.7313L623.658 113.7H603.58C597.924 113.7 592.872 114.148 588.424 115.044C583.986 115.94 580.262 117.283 577.252 119.075C574.252 120.856 571.96 123.091 570.377 125.778C568.804 128.466 568.017 131.601 568.017 135.184C568.017 138.83 568.84 142.158 570.486 145.169C572.132 148.179 574.622 150.565 577.955 152.325C581.288 154.075 585.387 154.95 590.252 154.95C596.345 154.95 601.715 153.664 606.361 151.091C611.017 148.507 614.726 145.356 617.486 141.638C620.247 137.908 621.731 134.289 621.939 130.778L630.439 140.341C629.929 143.341 628.564 146.669 626.345 150.325C624.127 153.981 621.174 157.476 617.486 160.809C613.799 164.132 609.429 166.888 604.377 169.075C599.335 171.263 593.663 172.356 587.361 172.356C579.476 172.356 572.58 170.815 566.674 167.731C560.767 164.648 556.184 160.513 552.924 155.325C549.663 150.127 548.033 144.309 548.033 137.872C548.033 131.632 549.252 126.132 551.689 121.372C554.127 116.611 557.637 112.638 562.22 109.45C566.804 106.263 572.314 103.846 578.752 102.2C585.2 100.554 592.403 99.7313 600.361 99.7313H623.455ZM692.732 5.20001V170.2H672.763V5.20001H692.732ZM746.228 53.9656V170.2H726.26V53.9656H746.228ZM724.744 23.1375C724.744 19.9188 725.728 17.2 727.697 14.9813C729.666 12.7521 732.588 11.6375 736.463 11.6375C740.254 11.6375 743.171 12.7521 745.213 14.9813C747.254 17.2 748.275 19.9188 748.275 23.1375C748.275 26.2208 747.254 28.8563 745.213 31.0438C743.171 33.2208 740.254 34.3094 736.463 34.3094C732.588 34.3094 729.666 33.2208 727.697 31.0438C725.728 28.8563 724.744 26.2208 724.744 23.1375ZM864.724 153.872V170.2H780.177V153.872H864.724ZM861.599 68.0438L784.693 170.2H772.552V155.591L848.927 53.9656H861.599V68.0438ZM852.802 53.9656V70.4031H773.412V53.9656H852.802ZM933.787 172.356C925.693 172.356 918.37 170.976 911.818 168.216C905.266 165.455 899.646 161.57 894.959 156.559C890.271 151.549 886.672 145.606 884.162 138.731C881.651 131.856 880.396 124.335 880.396 116.169V111.653C880.396 102.205 881.792 93.7729 884.584 86.3563C887.386 78.9396 891.183 72.6531 895.974 67.4969C900.776 62.3406 906.219 58.4396 912.302 55.7938C918.396 53.1479 924.698 51.825 931.209 51.825C939.521 51.825 946.704 53.2573 952.756 56.1219C958.808 58.9865 963.766 62.9813 967.631 68.1063C971.495 73.2208 974.36 79.2365 976.224 86.1531C978.089 93.0594 979.021 100.591 979.021 108.747V117.669H892.224V101.45H959.146V99.95C958.855 94.7938 957.797 89.7833 955.974 84.9188C954.151 80.0438 951.266 76.0333 947.318 72.8875C943.381 69.7313 938.011 68.1531 931.209 68.1531C926.698 68.1531 922.542 69.1011 918.74 70.9969C914.948 72.8927 911.693 75.7052 908.974 79.4344C906.256 83.1531 904.141 87.7 902.631 93.075C901.131 98.4396 900.381 104.632 900.381 111.653V116.169C900.381 121.679 901.151 126.851 902.693 131.684C904.235 136.518 906.49 140.763 909.459 144.419C912.427 148.075 916.042 150.94 920.302 153.013C924.573 155.085 929.427 156.122 934.865 156.122C941.886 156.122 947.829 154.69 952.693 151.825C957.568 148.96 961.829 145.132 965.474 140.341L977.506 149.903C975.006 153.695 971.818 157.309 967.943 160.747C964.079 164.184 959.334 166.981 953.709 169.138C948.094 171.283 941.454 172.356 933.787 172.356Z" fill="#2B2B2B"/>
<path fill-rule="evenodd" clip-rule="evenodd" d="M74.874 170.16L81.9134 159.388L88.9528 170.16H74.874Z" fill="white"/>
<path fill-rule="evenodd" clip-rule="evenodd" d="M74.874 35.9406L81.9134 46.7123L88.9528 35.9406H74.874Z" fill="white"/>
<path fill-rule="evenodd" clip-rule="evenodd" d="M74.874 143.552L81.9134 132.781L88.9528 143.552H74.874Z" fill="white"/>
<path fill-rule="evenodd" clip-rule="evenodd" d="M74.874 143.552L81.9134 154.324L88.9528 143.552H74.874Z" fill="white"/>
<path fill-rule="evenodd" clip-rule="evenodd" d="M74.874 116.65L81.9134 105.878L88.9528 116.65H74.874Z" fill="white"/>
<path fill-rule="evenodd" clip-rule="evenodd" d="M74.874 116.649L81.9134 127.421L88.9528 116.649H74.874Z" fill="white"/>
<path fill-rule="evenodd" clip-rule="evenodd" d="M74.874 89.7454L81.9134 78.9738L88.9528 89.7454H74.874Z" fill="white"/>
<path fill-rule="evenodd" clip-rule="evenodd" d="M74.874 89.7453L81.9134 100.517L88.9528 89.7453H74.874Z" fill="white"/>
<path fill-rule="evenodd" clip-rule="evenodd" d="M74.874 62.8425L81.9134 52.0709L88.9528 62.8425H74.874Z" fill="white"/>
<path fill-rule="evenodd" clip-rule="evenodd" d="M74.874 62.8424L81.9134 73.614L88.9528 62.8424H74.874Z" fill="white"/>
<path fill-rule="evenodd" clip-rule="evenodd" d="M74.8635 150.087L80.1549 157.126L74.8635 164.165V150.087Z" fill="white"/>
<path fill-rule="evenodd" clip-rule="evenodd" d="M74.8687 123.062L80.16 130.101L74.8687 137.14V123.062Z" fill="white"/>
<path fill-rule="evenodd" clip-rule="evenodd" d="M88.9581 137.14L83.6667 130.101L88.9581 123.062V137.14Z" fill="white"/>
<path fill-rule="evenodd" clip-rule="evenodd" d="M74.8687 96.1562L80.16 103.196L74.8687 110.235V96.1562Z" fill="white"/>
<path fill-rule="evenodd" clip-rule="evenodd" d="M88.9581 110.235L83.6667 103.196L88.9581 96.1562V110.235Z" fill="white"/>
<path fill-rule="evenodd" clip-rule="evenodd" d="M74.8687 69.2533L80.16 76.2926L74.8687 83.332V69.2533Z" fill="white"/>
<path fill-rule="evenodd" clip-rule="evenodd" d="M88.9581 83.332L83.6667 76.2926L88.9581 69.2533V83.332Z" fill="white"/>
<path fill-rule="evenodd" clip-rule="evenodd" d="M74.8687 42.3504L80.16 49.3898L74.8687 56.4291V42.3504Z" fill="white"/>
<path fill-rule="evenodd" clip-rule="evenodd" d="M88.9581 56.4291L83.6667 49.3898L88.9581 42.3504V56.4291Z" fill="white"/>
<path fill-rule="evenodd" clip-rule="evenodd" d="M88.9581 164.165L83.6667 157.126L88.9581 150.087V164.165Z" fill="white"/>
<path fill-rule="evenodd" clip-rule="evenodd" d="M85.6903 13.7769L71.6116 24.5486V13.7769H85.6903Z" fill="white"/>
<path fill-rule="evenodd" clip-rule="evenodd" d="M76.5486 24.5486L87.8872 15.7612V24.5486H76.5486Z" fill="white"/>
<path fill-rule="evenodd" clip-rule="evenodd" d="M76.5486 24.549H87.8872V28.2341H76.5486V24.549Z" fill="white"/>
<path fill-rule="evenodd" clip-rule="evenodd" d="M82.5957 19.4462L87.8871 15.7612V19.4462H82.5957Z" fill="#2B2B2B"/>
<path fill-rule="evenodd" clip-rule="evenodd" d="M13.5879 13.7769H87.8871V17.4619H13.5879V13.7769Z" fill="#2B2B2B"/>
<path fill-rule="evenodd" clip-rule="evenodd" d="M13.5879 24.5486H76.5485V28.2336H13.5879V24.5486Z" fill="#2B2B2B"/>
<path fill-rule="evenodd" clip-rule="evenodd" d="M60.4025 15.2237L64.6056 19.4401L68.8153 15.2304L70.362 16.7819L66.1523 20.9916L70.3553 25.208L68.7275 26.8358L64.5244 22.6195L60.3147 26.8292L58.7681 25.2776L62.9778 21.0679L58.7747 16.8516L60.4025 15.2237Z" fill="#2B2B2B"/>
<path fill-rule="evenodd" clip-rule="evenodd" d="M69.4885 28.1706V16.832H71.9767V28.1706H69.4885Z" fill="#2B2B2B"/>
<path fill-rule="evenodd" clip-rule="evenodd" d="M52.0549 15.2237L56.2579 19.4401L60.4677 15.2304L62.0143 16.7819L57.8046 20.9916L62.0077 25.208L60.3798 26.8358L56.1768 22.6195L51.9671 26.8292L50.4204 25.2776L54.6301 21.0679L50.4271 16.8516L52.0549 15.2237Z" fill="#2B2B2B"/>
<path fill-rule="evenodd" clip-rule="evenodd" d="M44.2097 15.2237L48.4127 19.4401L52.6224 15.2304L54.1691 16.7819L49.9594 20.9916L54.1624 25.208L52.5346 26.8358L48.3316 22.6195L44.1219 26.8292L42.5752 25.2776L46.7849 21.0679L42.5819 16.8516L44.2097 15.2237Z" fill="#2B2B2B"/>
<path fill-rule="evenodd" clip-rule="evenodd" d="M35.862 15.2237L40.0651 19.4401L44.2748 15.2304L45.8214 16.7819L41.6117 20.9916L45.8148 25.208L44.187 26.8358L39.9839 22.6195L35.7742 26.8292L34.2275 25.2776L38.4372 21.0679L34.2342 16.8516L35.862 15.2237Z" fill="#2B2B2B"/>
<path fill-rule="evenodd" clip-rule="evenodd" d="M0.716309 13.7769H16.3384V28.2336H0.716309V13.7769Z" fill="#2B2B2B"/>
<path fill-rule="evenodd" clip-rule="evenodd" d="M4.61914 24.4856L16.3357 17.4619V24.4856H4.61914Z" fill="white"/>
<path fill-rule="evenodd" clip-rule="evenodd" d="M16.2097 13.6929L0.524658 23.6457V13.6929H16.2097Z" fill="white"/>
<path fill-rule="evenodd" clip-rule="evenodd" d="M27.52 15.2237L31.723 19.4401L35.9327 15.2304L37.4794 16.7819L33.2697 20.9916L37.4727 25.208L35.8449 26.8358L31.6419 22.6195L27.4322 26.8292L25.8855 25.2776L30.0952 21.0679L25.8922 16.8516L27.52 15.2237Z" fill="#2B2B2B"/>
<path fill-rule="evenodd" clip-rule="evenodd" d="M19.1264 15.2237L23.3295 19.4401L27.5392 15.2304L29.0858 16.7819L24.8761 20.9916L29.0792 25.208L27.4514 26.8358L23.2483 22.6195L19.0386 26.8292L17.4919 25.2776L21.7017 21.0679L17.4986 16.8516L19.1264 15.2237Z" fill="#2B2B2B"/>
<path fill-rule="evenodd" clip-rule="evenodd" d="M15.8403 28.1706V16.832H18.3285V28.1706H15.8403Z" fill="#2B2B2B"/>
<path fill-rule="evenodd" clip-rule="evenodd" d="M16.3384 27.5958H33.2833V30.084H16.3384V27.5958Z" fill="#2B2B2B"/>
<path d="M19.3413 29.5919C19.6174 29.5919 19.8413 29.8157 19.8413 30.0919V55.0372C19.8411 55.3131 19.6173 55.5371 19.3413 55.5372H16.853C16.577 55.5372 16.3533 55.3131 16.353 55.0372V30.0919C16.353 29.8157 16.5769 29.5919 16.853 29.5919H19.3413ZM17.353 54.5372H18.8413V30.5919H17.353V54.5372Z" fill="#2B2B2B"/>
<path d="M32.8174 29.5919C33.0935 29.5919 33.3174 29.8157 33.3174 30.0919V55.0372C33.3172 55.3131 33.0933 55.5371 32.8174 55.5372H30.3291C30.0531 55.5372 29.8293 55.3131 29.8291 55.0372V30.0919C29.8291 29.8157 30.053 29.5919 30.3291 29.5919H32.8174ZM30.8291 54.5372H32.3174V30.5919H30.8291V54.5372Z" fill="#2B2B2B"/>
<path fill-rule="evenodd" clip-rule="evenodd" d="M16.3384 54.1901H33.2833V56.6783H16.3384V54.1901Z" fill="#2B2B2B"/>
<path fill-rule="evenodd" clip-rule="evenodd" d="M16.3386 56.4305L18.3465 64.4619H31.2756L33.2835 56.4305H16.3386Z" fill="#2B2B2B"/>
<path d="M24.7669 66.7878C23.3959 66.8055 22.332 67.6036 22.0286 68.568C21.738 69.4927 22.1527 70.5612 23.26 71.1501C24.3916 71.7517 25.8504 71.6186 26.802 70.862L28.0471 72.4284C26.4525 73.6961 24.1332 73.8789 22.3216 72.9157C20.4858 71.9396 19.5013 69.9382 20.1204 67.9684C20.7271 66.0389 22.6629 64.8147 24.7405 64.7878L24.7669 66.7878Z" fill="#2B2B2B"/>
<path fill-rule="evenodd" clip-rule="evenodd" d="M22.9055 63.3018H26.7165V66.9869H22.9055V63.3018Z" fill="#2B2B2B"/>
<path fill-rule="evenodd" clip-rule="evenodd" d="M676.291 24.5486H681.583V34.5013H676.291V24.5486Z" fill="white"/>
<path fill-rule="evenodd" clip-rule="evenodd" d="M684.291 24.5489H689.583V34.5017H684.291V24.5489Z" fill="#2B2B2B"/>
<path fill-rule="evenodd" clip-rule="evenodd" d="M676.291 39.1759H681.583V49.1286H676.291V39.1759Z" fill="#2B2B2B"/>
<path fill-rule="evenodd" clip-rule="evenodd" d="M684.291 39.1762H689.583V49.129H684.291V39.1762Z" fill="white"/>
<path fill-rule="evenodd" clip-rule="evenodd" d="M676.291 53.8031H681.583V63.7559H676.291V53.8031Z" fill="white"/>
<path fill-rule="evenodd" clip-rule="evenodd" d="M684.291 53.8035H689.583V63.7563H684.291V53.8035Z" fill="white"/>
<path fill-rule="evenodd" clip-rule="evenodd" d="M676.291 68.4305H681.583V78.3832H676.291V68.4305Z" fill="white"/>
<path fill-rule="evenodd" clip-rule="evenodd" d="M684.291 68.4308H689.583V78.3835H684.291V68.4308Z" fill="#2B2B2B"/>
<path fill-rule="evenodd" clip-rule="evenodd" d="M676.291 83.0577H681.583V93.0105H676.291V83.0577Z" fill="#2B2B2B"/>
<path fill-rule="evenodd" clip-rule="evenodd" d="M684.291 83.0581H689.583V93.0108H684.291V83.0581Z" fill="#2B2B2B"/>
<path fill-rule="evenodd" clip-rule="evenodd" d="M676.291 97.685H681.583V107.638H676.291V97.685Z" fill="white"/>
<path fill-rule="evenodd" clip-rule="evenodd" d="M684.291 97.6854H689.583V107.638H684.291V97.6854Z" fill="white"/>
<path fill-rule="evenodd" clip-rule="evenodd" d="M674.352 0.364822H679.643V5.24672H674.352V0.364822Z" fill="#2B2B2B"/>
<path fill-rule="evenodd" clip-rule="evenodd" d="M469.853 46.9501H475.144V55.7375H469.853V46.9501Z" fill="#2B2B2B"/>
<path fill-rule="evenodd" clip-rule="evenodd" d="M478.352 46.9501H483.643V55.7375H478.352V46.9501Z" fill="#2B2B2B"/>
<path fill-rule="evenodd" clip-rule="evenodd" d="M509.466 46.9501H514.757V55.7375H509.466V46.9501Z" fill="#2B2B2B"/>
<path fill-rule="evenodd" clip-rule="evenodd" d="M517.965 46.9501H523.256V55.7375H517.965V46.9501Z" fill="#2B2B2B"/>
<path d="M591.398 63.7949L591.333 64.291L591.268 64.7861L472.433 49.1962L472.564 48.204L591.398 63.7949Z" fill="#2B2B2B"/>
<path d="M579.391 60.4267L579.328 60.9228L579.265 61.4189L480.935 48.9462L481.06 47.954L579.391 60.4267Z" fill="#2B2B2B"/>
<path d="M585.403 57.6826L585.278 58.6747L512.049 49.4462L512.174 48.454L585.403 57.6826Z" fill="#2B2B2B"/>
<path d="M586.656 55.9247L586.533 56.9169L520.549 48.6962L520.672 47.704L586.656 55.9247Z" fill="#2B2B2B"/>
<path fill-rule="evenodd" clip-rule="evenodd" d="M918.554 76.0447C918.554 73.7486 920.415 71.8871 922.711 71.8871H939.719C940.822 71.8871 941.879 72.3252 942.659 73.1049C943.439 73.8846 943.877 74.942 943.877 76.0447V92.6745C943.877 94.9706 942.015 96.832 939.719 96.832H922.711C920.415 96.832 918.554 94.9706 918.554 92.6745V76.0447Z" fill="#2B2B2B"/>
<path fill-rule="evenodd" clip-rule="evenodd" d="M923.913 77.6483H938.517C938.828 77.6483 939.125 77.7716 939.345 77.9912C939.564 78.2107 939.688 78.5085 939.688 78.8189V84.672C939.688 84.672 939.688 84.6721 939.688 84.672H922.743C922.743 84.6721 922.743 84.672 922.743 84.672V78.8189C922.743 78.1724 923.267 77.6483 923.913 77.6483Z" fill="white"/>
<path fill-rule="evenodd" clip-rule="evenodd" d="M929.64 73.6142H932.79V85.9606H929.64V73.6142Z" fill="#2B2B2B"/>
<path fill-rule="evenodd" clip-rule="evenodd" d="M935.84 74.042C935.991 74.042 936.113 74.1642 936.113 74.315V75.4068C936.113 75.4792 936.084 75.5486 936.033 75.5998C935.982 75.651 935.912 75.6798 935.84 75.6798H926.591C926.44 75.6798 926.318 75.5576 926.318 75.4068V74.315C926.318 74.1642 926.44 74.042 926.591 74.042H935.84Z" fill="white"/>
<path fill-rule="evenodd" clip-rule="evenodd" d="M921.373 91.9659C921.373 90.7395 922.48 89.7454 923.845 89.7454C925.211 89.7454 926.318 90.7395 926.318 91.9659C926.318 93.1922 925.211 94.1863 923.845 94.1863C922.48 94.1863 921.373 93.1922 921.373 91.9659Z" fill="white"/>
<path fill-rule="evenodd" clip-rule="evenodd" d="M936.113 91.9659C936.113 90.7395 937.22 89.7454 938.585 89.7454C939.951 89.7454 941.058 90.7395 941.058 91.9659C941.058 93.1922 939.951 94.1863 938.585 94.1863C937.22 94.1863 936.113 93.1922 936.113 91.9659Z" fill="white"/>
<path fill-rule="evenodd" clip-rule="evenodd" d="M923.736 94.9217L926.319 96.7169L919.263 106.859L916.681 105.063L923.736 94.9217Z" fill="#2B2B2B"/>
<path fill-rule="evenodd" clip-rule="evenodd" d="M938.696 94.9217L936.114 96.7169L943.169 106.859L945.752 105.063L938.696 94.9217Z" fill="#2B2B2B"/>
<path fill-rule="evenodd" clip-rule="evenodd" d="M939.205 97.4475C939.315 97.4475 939.404 97.5368 939.404 97.647V98.4449C939.404 98.4978 939.383 98.5485 939.346 98.5859C939.308 98.6234 939.258 98.6443 939.205 98.6443H923.226C923.116 98.6443 923.026 98.5551 923.026 98.4449V97.647C923.026 97.5368 923.116 97.4475 923.226 97.4475H939.205Z" fill="#2B2B2B"/>
<path fill-rule="evenodd" clip-rule="evenodd" d="M939.131 99.2599C939.282 99.2599 939.404 99.382 939.404 99.5328V100.625C939.404 100.697 939.375 100.766 939.324 100.818C939.273 100.869 939.204 100.898 939.131 100.898H923.299C923.148 100.898 923.026 100.775 923.026 100.625V99.5328C923.026 99.382 923.148 99.2599 923.299 99.2599H939.131Z" fill="#2B2B2B"/>
<path fill-rule="evenodd" clip-rule="evenodd" d="M780.049 60.9239H791.766V63.4121H780.049V60.9239Z" fill="white"/>
<path fill-rule="evenodd" clip-rule="evenodd" d="M802.249 60.9239H813.965V63.4121H802.249V60.9239Z" fill="white"/>
<path fill-rule="evenodd" clip-rule="evenodd" d="M824.451 60.9239H836.167V63.4121H824.451V60.9239Z" fill="white"/>
<path fill-rule="evenodd" clip-rule="evenodd" d="M797.039 160.902H808.756V163.39H797.039V160.902Z" fill="white"/>
<path fill-rule="evenodd" clip-rule="evenodd" d="M819.239 160.902H830.955V163.39H819.239V160.902Z" fill="white"/>
<path fill-rule="evenodd" clip-rule="evenodd" d="M841.441 160.902H853.157V163.39H841.441V160.902Z" fill="white"/>
</svg>
